<?xml version="1.0" encoding="UTF-8" standalone="no"?>
<svg
   xmlns:dc="http://purl.org/dc/elements/1.1/"
   xmlns:cc="http://creativecommons.org/ns#"
   xmlns:rdf="http://www.w3.org/1999/02/22-rdf-syntax-ns#"
   xmlns:svg="http://www.w3.org/2000/svg"
   xmlns="http://www.w3.org/2000/svg"
   xmlns:xlink="http://www.w3.org/1999/xlink"
   role="img"
   viewBox="0 -1766.2 402.80686 546.01356"
   version="1.1"
   id="svg128"
   width="800"
   height="546.01355">
  <metadata
     id="metadata132">
    <rdf:RDF>
      <cc:Work
         rdf:about="">
        <dc:format>image/svg+xml</dc:format>
        <dc:type
           rdf:resource="http://purl.org/dc/dcmitype/StillImage" />
        <dc:title>OpenBLAS logo</dc:title>
      </cc:Work>
    </rdf:RDF>
  </metadata>
  <title
     id="title2">OpenBLAS logo</title>
  <defs
     id="defs16">
    <path
       id="a"
       d="m 247,-949 v 2399 h 269 v -62 H 309 V -887 h 207 v -62 z" />
    <path
       id="b"
       d="M 740,435 Q 740,320 676,213 612,106 511,42 410,-22 304,-22 207,-22 138,35 69,92 51,201 q -1,8 -1,43 0,102 48,194 48,92 129,163 124,103 249,103 38,0 48,-1 97,-14 156,-86 59,-72 60,-182 z m -103,41 q 0,89 -46,139 -46,50 -115,50 -80,0 -154,-60 -80,-63 -122,-177 -42,-114 -43,-212 0,-90 43,-143 43,-53 114,-54 90,0 171,79 81,79 123,215 29,95 29,163 z" />
    <path
       id="c"
       d="m 23,287 q 1,3 2,8 1,5 5,22 4,17 10,31 6,14 15,33 9,19 20,30 11,11 26,22 15,11 33,9 75,0 96,-64 l 10,9 q 62,55 118,55 65,0 102,-47 37,-47 37,-114 0,-108 -76,-199 -76,-91 -172,-92 -22,0 -39,6 -11,5 -23,15 -12,10 -19,17 l -7,8 q -1,-1 -22,-87 -21,-86 -21,-87 0,-6 8,-7 8,-1 37,-3 h 25 q 6,-7 6,-9 0,-2 -3,-18 -3,-12 -6,-15 -3,-3 -13,-4 h -11 q -9,0 -34,1 -25,1 -62,1 -70,0 -89,-2 h -8 q -7,7 -7,11 2,27 13,35 h 20 q 34,1 39,12 3,6 61,239 58,233 61,247 1,5 1,14 0,41 -25,41 -22,0 -37,-28 Q 79,349 71,316 63,283 59,280 57,278 43,278 H 29 q -6,6 -6,9 z M 178,102 q 22,-76 74,-76 30,0 58,23 28,23 46,58 18,34 36,108 18,74 19,110 v 6 q 0,74 -61,74 -11,0 -22,-3 -11,-3 -22,-9 -11,-6 -20,-13 -9,-7 -17,-15 -8,-8 -15,-15 -7,-7 -11,-14 -4,-7 -8,-10 l -3,-4 q 0,-1 -3,-14 -3,-13 -11,-44 -8,-31 -14,-52 -26,-106 -26,-110 z" />
    <path
       id="d"
       d="m 231,637 q -27,0 -32,1 -5,1 -5,11 0,27 11,33 1,1 130,1 259,0 273,-2 63,-10 105,-45 42,-35 43,-92 0,-64 -58,-115 -58,-51 -133,-69 l -10,-3 q 64,-9 105,-46 41,-37 42,-92 Q 702,146 630,78 558,10 453,1 446,0 242,0 42,0 39,2 q -4,3 -4,8 0,7 2,14 5,19 10,21 4,1 15,1 h 6 q 27,0 60,3 14,3 19,12 3,4 72,278 69,274 69,289 0,7 -57,9 z m 418,-93 q 0,30 -15,56 -15,26 -49,34 -7,2 -92,3 h -42 q -22,0 -35,-1 h -13 q -15,-1 -19,-10 -2,-4 -32,-120 0,-3 -1,-6 L 320,374 h 81 q 81,0 93,2 60,10 107,58 47,48 48,110 z M 595,229 q 0,44 -23,73 -23,29 -60,34 -6,1 -83,1 -118,0 -119,-1 0,-2 -17,-73 -17,-71 -35,-141 L 240,52 q 0,-4 12,-4 12,0 81,-2 89,0 96,1 62,7 114,58 52,51 52,124 z" />
    <path
       id="e"
       d="m 228,637 q -34,0 -36,4 -1,2 -1,8 0,24 11,33 2,1 15,1 54,-3 127,-3 141,0 162,3 h 12 q 6,-6 6,-9 0,-3 -2,-18 -5,-15 -9,-19 h -38 q -69,-1 -81,-9 -7,-4 -14,-28 Q 373,576 313,336 297,271 279,198 261,125 252,88 l -9,-36 q 0,-4 9,-4 9,0 59,-2 h 17 q 32,0 51,1 19,1 49,7 30,6 50,18 20,12 44,34 24,22 42,55 16,30 30,67 14,37 17,42 5,3 17,3 h 13 q 6,-9 6,-11 0,-2 -20,-59 Q 607,146 583,83 559,20 557,9 555,4 553,3 551,2 537,0 523,-2 494,-1 H 418 Q 353,-1 294,0 H 116 q -84,0 -84,10 0,7 2,14 5,19 10,21 4,1 15,1 h 6 q 27,0 60,3 14,3 19,12 3,4 72,278 69,274 69,289 0,7 -57,9 z" />
    <path
       id="f"
       d="m 11,1388 v 62 H 280 V -949 H 11 v 62 h 207 v 2275 z" />
    <path
       id="g"
       d="m 55,642 v 6 l 4,11 7,7 5,2 h 637 q 15,-8 15,-20 0,-12 -15,-20 H 409 V 15 Q 402,2 391,0 q -4,0 -7,1 -3,1 -5,2 -2,1 -4,3 -2,2 -2,3 0,1 -2,4 -2,3 -2,3 V 628 H 71 q -1,0 -4,2 -3,2 -8,7 z" />
    <path
       id="h"
       d="M 630,29 Q 630,9 609,9 604,9 587,25 570,41 493,118 L 389,222 284,117 Q 178,13 175,11 q -4,-2 -7,-2 -8,0 -14,6 -6,6 -7,14 0,7 14,22 14,15 94,95 L 359,250 255,354 q -81,81 -94,95 -13,14 -14,22 0,9 6,14 6,5 15,5 5,0 7,-1 3,-2 109,-106 L 389,278 493,382 q 77,77 94,93 17,16 22,16 21,0 21,-20 0,-7 -10,-18 -10,-11 -98,-98 L 418,250 522,145 q 84,-84 96,-97 12,-13 12,-19 z" />
    <path
       id="i"
       d="m 39,168 q 0,57 19,104 19,47 49,78 30,31 67,52 37,21 70,31 33,10 63,9 h 3 q 45,0 78,-22 33,-22 33,-65 0,-90 -111,-118 -49,-13 -134,-14 -37,0 -38,-2 0,-2 -6,-35 -6,-33 -7,-58 0,-47 21,-74 21,-27 63,-28 42,-1 93,19 51,20 92,66 9,10 12,10 4,0 13,-9 9,-9 10,-14 1,-5 -9,-16 Q 410,71 390,55 370,39 344,24 318,9 281,-1 244,-11 205,-11 126,-11 83,42 40,95 39,168 Z m 334,185 q -6,52 -68,52 -33,0 -61,-14 -28,-14 -45,-34 -17,-20 -29,-41 -12,-21 -16,-36 -4,-15 -5,-19 0,-1 20,-1 113,0 158,24 45,24 46,69 z" />
    <path
       id="j"
       d="m 21,287 q 1,6 3,16 2,10 12,38 10,28 20,47 10,19 33,37 23,18 46,17 36,0 60,-18 24,-18 30,-34 6,-16 6,-21 0,-2 1,-2 l 11,11 q 61,64 139,64 54,0 87,-27 33,-27 34,-79 1,-52 -38,-157 -39,-105 -38,-127 0,-26 17,-26 6,0 9,1 29,5 52,38 23,33 35,80 2,8 20,8 20,0 20,-8 0,-1 -4,-15 -8,-29 -22,-57 -14,-28 -46,-56 -32,-28 -69,-27 -47,0 -68,27 -21,27 -21,56 0,19 36,120 36,101 37,152 0,59 -44,59 h -5 Q 288,404 229,303 L 222,291 189,157 Q 156,26 151,16 138,-11 108,-11 95,-11 87,-5 79,1 76,7 q -3,6 -2,10 0,13 38,163 38,150 40,163 1,5 1,23 0,39 -24,39 -38,0 -63,-100 -6,-20 -6,-21 -2,-6 -19,-6 H 27 q -6,6 -6,9 z" />
    <path
       id="k"
       d="m 208,74 q 0,-24 46,-28 18,0 18,-11 0,-1 -2,-13 Q 267,8 264,4 261,0 251,0 H 239 Q 229,0 205,1 181,2 141,2 70,2 50,0 h -8 q -7,7 -7,11 2,27 13,35 h 14 q 70,3 102,50 6,6 181,305 175,299 178,303 7,12 24,12 h 25 q 6,-9 6,-10 l 28,-323 q 28,-323 30,-326 5,-11 65,-11 25,0 25,-10 0,-2 -3,-14 Q 720,7 718,4 716,1 704,0 H 690 Q 679,0 651,1 623,2 578,2 484,2 455,0 h -12 q -6,6 -6,9 0,3 2,18 4,13 6,16 l 4,3 h 20 q 54,3 64,17 L 521,213 H 283 L 249,155 Q 208,86 208,74 Z m 308,186 q 0,11 -12,156 -12,145 -14,146 L 463,519 Q 447,492 400,412 l -90,-152 103,-1 q 103,0 103,1 z" />
    <path
       id="l"
       d="m 308,24 q 59,0 108,52 49,52 50,121 0,63 -52,87 -106,27 -136,37 -30,10 -42,20 -60,42 -60,121 0,61 32,111 32,50 65,75 29,25 70,40 41,15 64,16 h 18 q 96,0 139,-64 1,0 13,13 12,13 26,29 14,16 20,22 h 4 q 3,0 5,1 13,0 13,-7 0,-7 -28,-121 -28,-114 -32,-118 -4,-4 -16,-3 -20,0 -20,9 0,6 1,10 0,3 1,19 1,16 2,26 0,34 -9,59 -9,25 -18,37 -9,12 -25,25 -36,21 -82,21 -57,0 -106,-46 -49,-46 -50,-106 0,-30 15,-52 15,-22 41,-31 4,-2 70,-19 66,-17 67,-18 34,-11 66,-48 32,-37 32,-100 0,-26 -8,-56 -5,-22 -18,-49 -13,-27 -36,-59 -23,-32 -66,-60 -43,-28 -94,-38 -12,-2 -34,-2 -99,0 -154,55 L 134,44 106,13 q -23,-27 -28,-31 -5,-4 -13,-4 -13,0 -13,8 0,3 58,235 2,6 20,6 h 13 q 6,-6 6,-11 0,-2 -1,-9 -1,-7 -4,-21 -3,-14 -2,-33 2,-39 18,-66 16,-27 43,-40 27,-13 52,-18 25,-5 53,-5 z" />
    <filter
       style="color-interpolation-filters:sRGB"
       id="filter4682"
       x="-0.23803717"
       width="1.4760743"
       y="-0.02669112"
       height="1.0533822">
      <feGaussianBlur
         stdDeviation="26.68"
         id="feGaussianBlur4684" />
    </filter>
    <filter
       style="color-interpolation-filters:sRGB"
       id="filter4686"
       x="-0.23803717"
       width="1.4760743"
       y="-0.02669112"
       height="1.0533822">
      <feGaussianBlur
         stdDeviation="26.68"
         id="feGaussianBlur4688" />
    </filter>
    <filter
       style="color-interpolation-filters:sRGB"
       id="filter4690"
       x="-0.23803717"
       width="1.4760743"
       y="-0.02669112"
       height="1.0533822">
      <feGaussianBlur
         stdDeviation="26.68"
         id="feGaussianBlur4692" />
    </filter>
    <filter
       style="color-interpolation-filters:sRGB"
       id="filter4694"
       x="-0.23803717"
       width="1.4760743"
       y="-0.02669112"
       height="1.0533822">
      <feGaussianBlur
         stdDeviation="26.68"
         id="feGaussianBlur4696" />
    </filter>
    <filter
       style="color-interpolation-filters:sRGB"
       id="filter4706"
       x="-0.14424978"
       width="1.2884996"
       y="-0.14424978"
       height="1.2884996">
      <feGaussianBlur
         stdDeviation="12.211888"
         id="feGaussianBlur4708" />
    </filter>
    <filter
       style="color-interpolation-filters:sRGB"
       id="filter4820"
       x="-1.0222467"
       width="3.0444934"
       y="-0.11330566"
       height="1.2266113">
      <feGaussianBlur
         stdDeviation="18.128906"
         id="feGaussianBlur4822" />
    </filter>
  </defs>
  <g
     id="g945"
     transform="matrix(0.19294479,0,0,0.20162962,-4.9748406,-1413.1818)">
    <g
       transform="translate(-1204.9765,-59.854446)"
       style="fill:#000080;stroke:currentColor;stroke-width:0"
       id="g126">
      <g
         style="fill:#000080"
         id="g124"
         data-mml-node="math">
        <g
           transform="translate(-31.5)"
           style="display:inline;fill:#000080"
           id="g72"
           data-mml-node="msup">
          <g
             style="fill:#000080"
             id="g62"
             data-mml-node="TeXAtom">
            <g
               style="fill:#000080;stroke:#02a0c6"
               id="g60"
               data-mml-node="mstyle">
              <g
                 style="fill:#000080"
                 id="g58"
                 data-mml-node="mrow">
                <g
                   style="fill:#000080;fill-opacity:1;filter:url(#filter4686)"
                   id="g20"
                   transform="matrix(1.0114584,0,0,-0.94200534,149.28532,-51.320028)"
                   data-mml-node="mo">
                  <use
                     height="100%"
                     width="100%"
                     y="0"
                     x="0"
                     style="fill:#000080;fill-opacity:1"
                     id="use18"
                     xlink:href="#a" />
                </g>
                <g
                   transform="translate(0,151.87763)"
                   style="fill:#000080"
                   id="g52"
                   data-mml-node="mtable">
                  <g
                     transform="translate(0,-39.676711)"
                     style="fill:#000080"
                     id="g34"
                     data-mml-node="mtr">
                    <g
                       transform="translate(0,63.961331)"
                       style="fill:#000080"
                       id="g32"
                       data-mml-node="mtd">
                      <g
                         style="fill:#000080;stroke:#44a8fc"
                         id="g30"
                         data-mml-node="mstyle">
                        <g
                           style="fill:#000080"
                           id="g24"
                           transform="matrix(1,0,0,-1,615,-682.3)"
                           data-mml-node="mi">
                          <use
                             height="100%"
                             width="100%"
                             y="0"
                             x="0"
                             style="fill:#000080"
                             id="use22"
                             xlink:href="#b" />
                        </g>
                        <g
                           style="fill:#000080"
                           id="g28"
                           transform="matrix(1,0,0,-1,1378,-682.3)"
                           data-mml-node="mi">
                          <use
                             height="100%"
                             width="100%"
                             y="0"
                             x="0"
                             style="fill:#000080"
                             id="use26"
                             xlink:href="#c" />
                        </g>
                      </g>
                    </g>
                  </g>
                  <g
                     transform="translate(0,-195.40765)"
                     style="fill:#800000"
                     id="g48"
                     data-mml-node="mtr">
                    <g
                       style="fill:#800000"
                       id="g46"
                       data-mml-node="mtd">
                      <g
                         style="fill:#800000;stroke:#ee82ee"
                         id="g44"
                         data-mml-node="mstyle">
                        <g
                           style="fill:#800000"
                           id="g38"
                           transform="matrix(1,0,0,-1,528,682.3)"
                           data-mml-node="mi">
                          <use
                             height="100%"
                             width="100%"
                             y="0"
                             x="0"
                             style="fill:#800000"
                             id="use36"
                             xlink:href="#d" />
                        </g>
                        <g
                           style="fill:#800000"
                           id="g42"
                           transform="matrix(1,0,0,-1,1287,682.3)"
                           data-mml-node="mi">
                          <use
                             height="100%"
                             width="100%"
                             y="0"
                             x="0"
                             style="fill:#800000"
                             id="use40"
                             xlink:href="#e" />
                        </g>
                      </g>
                    </g>
                  </g>
                </g>
                <g
                   style="fill:#000080;fill-opacity:1;filter:url(#filter4682)"
                   id="g56"
                   transform="matrix(1.0115444,0,0,-0.9420306,1854.1256,-51.345617)"
                   data-mml-node="mo">
                  <use
                     height="100%"
                     width="100%"
                     y="0"
                     x="0"
                     style="fill:#000080;fill-opacity:1"
                     id="use54"
                     xlink:href="#f" />
                </g>
              </g>
            </g>
          </g>
        </g>
        <g
           transform="translate(-1724.9,4)"
           style="fill:#800000;stroke:#02a0c6"
           id="g122"
           data-mml-node="mstyle">
          <g
             style="fill:#800000"
             id="g120"
             data-mml-node="TeXAtom">
            <g
               style="fill:#800000"
               id="g118"
               data-mml-node="mrow">
              <g
                 style="fill:#800000;fill-opacity:1;filter:url(#filter4694)"
                 id="g80"
                 transform="matrix(1.0117369,0,0,-0.94026514,3995.3166,-53.55715)"
                 data-mml-node="mo">
                <use
                   height="100%"
                   width="100%"
                   y="0"
                   x="0"
                   style="fill:#800000;fill-opacity:1"
                   id="use78"
                   xlink:href="#a" />
              </g>
              <g
                 transform="matrix(1,0,0,0.9988905,-33.172206,176.08811)"
                 style="fill:#800000"
                 id="g112"
                 data-mml-node="mtable">
                <g
                   transform="translate(0,-1.9281484)"
                   style="fill:#000080"
                   id="g94"
                   data-mml-node="mtr">
                  <g
                     style="fill:#000080"
                     id="g92"
                     data-mml-node="mtd">
                    <g
                       style="fill:#000080;stroke:#44a8fc"
                       id="g90"
                       data-mml-node="mstyle">
                      <g
                         style="fill:#000080"
                         id="g84"
                         transform="matrix(1,0,0,-1,4564.1,-682.3)"
                         data-mml-node="mi">
                        <use
                           height="100%"
                           width="100%"
                           y="0"
                           x="0"
                           style="fill:#000080"
                           id="use82"
                           xlink:href="#i" />
                      </g>
                      <g
                         style="fill:#000080"
                         id="g88"
                         transform="matrix(1,0,0,-1,5030.1,-682.3)"
                         data-mml-node="mi">
                        <use
                           height="100%"
                           width="100%"
                           y="0"
                           x="0"
                           style="fill:#000080"
                           id="use86"
                           xlink:href="#j" />
                      </g>
                    </g>
                  </g>
                </g>
                <g
                   transform="translate(0,-236.82271)"
                   style="fill:#800000"
                   id="g108"
                   data-mml-node="mtr">
                  <g
                     style="fill:#800000"
                     id="g106"
                     data-mml-node="mtd">
                    <g
                       style="fill:#800000;stroke:#ee82ee"
                       id="g104"
                       data-mml-node="mstyle">
                      <g
                         style="fill:#800000"
                         id="g98"
                         transform="matrix(1,0,0,-1,4415.6,682.3)"
                         data-mml-node="mi">
                        <use
                           height="100%"
                           width="100%"
                           y="0"
                           x="0"
                           style="fill:#800000"
                           id="use96"
                           xlink:href="#k" />
                      </g>
                      <g
                         style="fill:#800000"
                         id="g102"
                         transform="matrix(1,0,0,-1,5165.6,682.3)"
                         data-mml-node="mi">
                        <use
                           height="100%"
                           width="100%"
                           y="0"
                           x="0"
                           style="fill:#800000"
                           id="use100"
                           xlink:href="#l" />
                      </g>
                    </g>
                  </g>
                </g>
              </g>
              <g
                 style="fill:#800000;filter:url(#filter4690)"
                 id="g116"
                 transform="matrix(1.0115372,0,0,-0.94204911,5706.1889,-55.364368)"
                 data-mml-node="mo">
                <use
                   height="100%"
                   width="100%"
                   y="0"
                   x="0"
                   style="fill:#800000"
                   id="use114"
                   xlink:href="#f" />
              </g>
            </g>
          </g>
        </g>
      </g>
    </g>
    <text
       transform="rotate(45,-2691.9673,-4469.3442)"
       id="text4704"
       y="-4166.0034"
       x="2812.582"
       style="font-style:normal;font-weight:normal;font-size:192px;line-height:1.25;font-family:sans-serif;letter-spacing:0px;word-spacing:0px;fill:#806600;fill-opacity:1;stroke:none;filter:url(#filter4706)"
       xml:space="preserve"><tspan
         style="font-size:229.33332825px;fill:#806600"
         y="-4166.0034"
         x="2812.582"
         id="tspan4702">+</tspan></text>
    <text
       id="text4746"
       y="-1429.2532"
       x="994.73688"
       style="font-style:normal;font-variant:normal;font-weight:bold;font-stretch:normal;font-size:384px;line-height:1.25;font-family:sans-serif;-inkscape-font-specification:'sans-serif Bold';letter-spacing:0px;word-spacing:0px;fill:#806600;fill-opacity:1;stroke:none;filter:url(#filter4820)"
       xml:space="preserve"><tspan
         y="-1429.2532"
         x="994.73688"
         id="tspan4744">|</tspan></text>
  </g>
</svg>
