<svg width="11" height="10" viewBox="0 0 11 10" fill="none" xmlns="http://www.w3.org/2000/svg">
<path opacity="0.7" d="M8.29336 0.949999C7.69336 0.949999 7.24336 1.1 6.91336 1.46C6.52336 1.79 6.34336 2.24 6.34336 2.81C6.34336 3.32 6.52336 3.74 6.88336 4.1C7.24336 4.46 7.66336 4.64 8.17336 4.64C8.47336 4.64 8.71336 4.61 8.83336 4.55C8.83336 5.27 8.62336 5.93 8.17336 6.56C7.69336 7.16 7.06336 7.58 6.28336 7.85V9.35C7.54336 8.99 8.59336 8.33 9.37336 7.37C10.1534 6.38 10.5434 5.21 10.5434 3.89C10.5434 2.99 10.3334 2.3 9.94336 1.76C9.52336 1.22 8.95336 0.949999 8.29336 0.949999ZM2.38336 0.949999C1.78336 0.949999 1.30336 1.1 0.943359 1.46C0.58336 1.79 0.43336 2.24 0.43336 2.81C0.43336 3.32 0.613359 3.74 0.973359 4.1C1.30336 4.46 1.72336 4.64 2.23336 4.64C2.53336 4.64 2.77336 4.61 2.89336 4.55C2.89336 5.27 2.68336 5.93 2.20336 6.56C1.72336 7.16 1.12336 7.58 0.34336 7.85V9.35C1.60336 8.99 2.65336 8.33 3.43336 7.37C4.21336 6.38 4.60336 5.21 4.60336 3.89C4.60336 2.99 4.39336 2.3 4.00336 1.76C3.58336 1.22 3.04336 0.949999 2.38336 0.949999Z" fill="#63646D"/>
</svg>
