<svg width="11" height="10" viewBox="0 0 11 10" fill="none" xmlns="http://www.w3.org/2000/svg">
<path opacity="0.7" d="M10.5921 0.979998C9.27211 1.31 8.25211 1.97 7.47211 2.96C6.69211 3.92 6.33211 5.09 6.33211 6.44C6.33211 7.28 6.51211 8 6.90211 8.54C7.32211 9.08 7.86211 9.38 8.55211 9.38C9.12211 9.38 9.57211 9.2 9.93211 8.87C10.2921 8.51 10.5021 8.06 10.5021 7.52C10.5021 6.98 10.3221 6.56 9.99211 6.2C9.63211 5.84 9.18211 5.69 8.67211 5.69C8.37211 5.69 8.13211 5.72 8.01211 5.78C8.01211 5.06 8.22211 4.4 8.67211 3.83C9.15211 3.17 9.78211 2.72 10.5921 2.48V0.979998ZM4.65211 0.979998C3.33211 1.31 2.31211 1.97 1.56211 2.96C0.78211 3.92 0.392109 5.09 0.392109 6.44C0.392109 7.31 0.57211 8 0.99211 8.54C1.38211 9.08 1.92211 9.38 2.61211 9.38C3.21211 9.38 3.69211 9.2 4.05211 8.87C4.38211 8.51 4.56211 8.06 4.56211 7.52C4.56211 6.98 4.38211 6.56 4.02211 6.2C3.66211 5.84 3.24211 5.69 2.76211 5.69C2.43211 5.69 2.19211 5.72 2.07211 5.78C2.07211 5.06 2.28211 4.4 2.76211 3.8C3.21211 3.17 3.84211 2.72 4.65211 2.48V0.979998Z" fill="#63646D"/>
</svg>
