<svg width="36" height="36" viewBox="0 0 36 36" fill="none" xmlns="http://www.w3.org/2000/svg">
<path d="M18 3.59998C10.044 3.59998 3.59998 10.0007 3.59998 17.9032C3.59834 20.9058 4.54867 23.8327 6.31613 26.2687C8.08359 28.7046 10.5784 30.5258 13.4467 31.474C14.1667 31.5985 14.436 31.1694 14.436 30.7932C14.436 30.4542 14.4173 29.3286 14.4173 28.13C10.8 28.7922 9.86398 27.2546 9.57598 26.4493C9.41326 26.0374 8.71198 24.7687 8.09998 24.4283C7.59598 24.1608 6.87598 23.4986 8.08126 23.4814C9.21598 23.4628 10.0253 24.5184 10.296 24.9475C11.592 27.1101 13.6627 26.5023 14.4893 26.1275C14.616 25.1978 14.9933 24.5728 15.408 24.2152C12.204 23.8576 8.85598 22.6232 8.85598 17.1523C8.85598 15.5961 9.41326 14.3102 10.332 13.3076C10.188 12.95 9.68398 11.4839 10.476 9.51721C10.476 9.51721 11.6813 9.14246 14.436 10.9847C15.6082 10.6616 16.8194 10.4989 18.036 10.5013C19.26 10.5013 20.484 10.6615 21.636 10.9833C24.3893 9.12387 25.596 9.51864 25.596 9.51864C26.388 11.4853 25.884 12.9514 25.74 13.309C26.6573 14.3102 27.216 15.5789 27.216 17.1523C27.216 22.6418 23.8507 23.8576 20.6467 24.2152C21.168 24.6614 21.6187 25.5196 21.6187 26.8613C21.6187 28.7736 21.6 30.3112 21.6 30.7946C21.6 31.1694 21.8707 31.6156 22.5907 31.4726C25.4491 30.514 27.933 28.6892 29.6926 26.255C31.4523 23.8208 32.3992 20.8999 32.4 17.9032C32.4 10.0007 25.956 3.59998 18 3.59998V3.59998Z" fill="#262833"/>
</svg>
