<?xml version="1.0" encoding="UTF-8"?>
<!DOCTYPE svg PUBLIC "-//W3C//DTD SVG 1.1//EN" "http://www.w3.org/Graphics/SVG/1.1/DTD/svg11.dtd">
<svg xmlns="http://www.w3.org/2000/svg" version="1.1" width="512px" height="512px" style="shape-rendering:geometricPrecision; text-rendering:geometricPrecision; image-rendering:optimizeQuality; fill-rule:evenodd; clip-rule:evenodd" xmlns:xlink="http://www.w3.org/1999/xlink">
<g><path style="opacity:0.998" fill="#14a8c9" d="M 177.5,-0.5 C 185.5,-0.5 193.5,-0.5 201.5,-0.5C 216.485,2.49184 229.818,8.99184 241.5,19C 263.362,40.5281 284.862,62.3615 306,84.5C 321.873,104.738 325.54,127.072 317,151.5C 313.365,160.772 308.699,169.439 303,177.5C 287.138,193.029 271.638,208.862 256.5,225C 251.896,228.6 246.896,229.267 241.5,227C 205.667,191.167 169.833,155.333 134,119.5C 114.347,92.1441 112.347,63.4775 128,33.5C 139.766,15.2282 156.266,3.8949 177.5,-0.5 Z"/></g>
<g><path style="opacity:0.991" fill="#5168ac" d="M 80.5,117.5 C 83.5823,118.017 86.5823,118.85 89.5,120C 131.667,162.167 173.833,204.333 216,246.5C 219.574,253.075 219.241,259.408 215,265.5C 173.167,307.333 131.333,349.167 89.5,391C 79.3707,395.174 72.204,392.341 68,382.5C 67.3333,297.833 67.3333,213.167 68,128.5C 69.8906,122.153 74.0573,118.486 80.5,117.5 Z"/></g>
<g><path style="opacity:0.998" fill="#51c9a2" d="M 206.5,511.5 C 197.5,511.5 188.5,511.5 179.5,511.5C 148.554,504.392 128.72,485.392 120,454.5C 114.417,431.171 119.083,410.171 134,391.5C 199.306,325.194 264.972,259.194 331,193.5C 345.241,176.315 354.407,156.648 358.5,134.5C 376.154,152.988 394.321,170.988 413,188.5C 422.048,199.213 430.714,210.213 439,221.5C 452.98,251.039 450.313,279.039 431,305.5C 369.473,367.361 307.639,428.861 245.5,490C 240.124,495.044 234.458,499.711 228.5,504C 221.551,508.038 214.217,510.538 206.5,511.5 Z"/></g>
</svg>
