<svg width="88" height="30" viewBox="0 0 88 30" fill="none" xmlns="http://www.w3.org/2000/svg">
<g clip-path="url(#clip0_163_263)">
<path d="M13.6064 4.59429L10.3332 1.32107C9.91606 0.90283 9.42058 0.57089 8.87509 0.344218C8.3296 0.117546 7.74478 0.000586913 7.15407 1.93118e-05C6.06458 -0.00328922 5.01681 0.418635 4.23365 1.17603C3.82467 1.57082 3.49834 2.04305 3.27367 2.56521C3.049 3.08736 2.93048 3.649 2.925 4.21741C2.91953 4.78583 3.02722 5.34965 3.2418 5.87603C3.45637 6.40241 3.77355 6.88084 4.17485 7.28343L10.1137 13.2223C10.2397 13.3417 10.4066 13.4082 10.5802 13.4082C10.7537 13.4082 10.9207 13.3417 11.0467 13.2223L13.6025 10.6664C13.7632 10.4743 16.4367 7.42063 13.6064 4.59429Z" fill="#15A9CA"/>
<path d="M18.9689 9.8236C18.3456 9.21992 17.6988 8.59663 17.1148 7.92238V7.89886C17.0939 7.96018 17.0782 8.02312 17.0677 8.08702C16.8225 9.51983 16.1197 10.8346 15.0646 11.8346C11.6189 15.2568 8.13396 18.7534 4.76274 22.1364L4.30801 22.5872C3.6131 23.2265 3.14408 24.0737 2.97128 25.002C2.89829 25.6637 2.96756 26.3334 3.17443 26.9662C3.38131 27.599 3.72102 28.1803 4.17081 28.6711C4.55481 29.1067 5.03077 29.4515 5.5643 29.6806C6.09784 29.9098 6.67562 30.0175 7.25588 29.9961C8.60045 30.0157 9.25509 29.8393 10.2351 28.8867C14.1551 25.049 18.0752 21.1799 21.0426 18.2399C22.4421 16.8483 22.7635 14.5433 21.7718 12.991C20.9652 11.8287 20.0244 10.7656 18.9689 9.8236Z" fill="#52CAA3"/>
<path d="M-0.00390618 7.77345V22.2305C-0.00397307 22.3895 0.0431223 22.545 0.131419 22.6772C0.219716 22.8094 0.345246 22.9124 0.492127 22.9733C0.639009 23.0341 0.800637 23.05 0.956566 23.019C1.1125 22.988 1.25572 22.9114 1.3681 22.7989L8.64368 15.5234C8.78109 15.3846 8.85817 15.1973 8.85817 15.002C8.85817 14.8067 8.78109 14.6194 8.64368 14.4806L1.3681 7.20505C1.29503 7.1305 1.20781 7.07129 1.11155 7.0309C1.01529 6.99051 0.911933 6.96976 0.807543 6.96985C0.593686 6.96984 0.388466 7.05425 0.236514 7.20474C0.0845616 7.35522 -0.00183992 7.5596 -0.00390618 7.77345Z" fill="#5268AD"/>
<path d="M31.7483 21.1407V8.87494H35.3861C39.3728 8.87494 41.8541 11.227 41.8541 15.0019C41.8541 18.7769 39.3728 21.1407 35.3861 21.1407H31.7483ZM33.7083 19.3845H35.4684C38.1615 19.3845 39.898 17.6676 39.898 15.0137C39.898 12.3598 38.1615 10.6429 35.4684 10.6429H33.7083V19.3845Z" fill="#1D2434"/>
<path d="M50.6116 21.3289C49.7807 21.3289 48.958 21.1653 48.1904 20.8473C47.4228 20.5293 46.7253 20.0633 46.1378 19.4758C45.5503 18.8883 45.0842 18.1908 44.7663 17.4232C44.4483 16.6556 44.2847 15.8328 44.2847 15.002C44.2847 14.1711 44.4483 13.3484 44.7663 12.5808C45.0842 11.8131 45.5503 11.1157 46.1378 10.5282C46.7253 9.94065 47.4228 9.47462 48.1904 9.15666C48.958 8.8387 49.7807 8.67505 50.6116 8.67505C51.4425 8.67505 52.2652 8.8387 53.0328 9.15666C53.8004 9.47462 54.4979 9.94065 55.0854 10.5282C55.6729 11.1157 56.139 11.8131 56.4569 12.5808C56.7749 13.3484 56.9385 14.1711 56.9385 15.002C56.9385 15.8328 56.7749 16.6556 56.4569 17.4232C56.139 18.1908 55.6729 18.8883 55.0854 19.4758C54.4979 20.0633 53.8004 20.5293 53.0328 20.8473C52.2652 21.1653 51.4425 21.3289 50.6116 21.3289ZM50.6116 10.4939C49.4485 10.5425 48.3492 11.0386 47.5434 11.8787C46.7376 12.7188 46.2877 13.8379 46.2877 15.002C46.2877 16.1661 46.7376 17.2851 47.5434 18.1252C48.3492 18.9653 49.4485 19.4615 50.6116 19.51C51.7972 19.4825 52.9253 18.9936 53.7561 18.1474C54.587 17.3012 55.055 16.1644 55.0608 14.9785C55.064 13.7942 54.5973 12.6571 53.7633 11.8164C52.9292 10.9758 51.7958 10.5002 50.6116 10.4939Z" fill="#1D2434"/>
<path d="M75.0569 8.87494H73.042V21.129H75.0569V8.87494Z" fill="#1D2434"/>
<path d="M82.4737 21.3289C81.1791 21.3185 79.9001 21.0451 78.7144 20.5253V18.7221C79.8919 19.2745 81.1731 19.5711 82.4737 19.5923C84.0417 19.5923 85.0883 18.875 85.0883 17.8126C85.0883 16.617 83.8104 16.1427 82.458 15.6409C80.3372 14.8569 78.7144 14.1004 78.7144 12.0933C78.7144 9.57274 80.9958 8.67505 82.9519 8.67505C84.0515 8.67577 85.1414 8.88046 86.1663 9.27874V11.0428C85.1268 10.6282 84.02 10.4077 82.9009 10.392C81.3957 10.392 80.7214 11.176 80.7214 11.96C80.7214 12.9988 81.8504 13.4144 83.1754 13.8926C85.4882 14.7276 87.2522 15.5429 87.2522 17.7342C87.2443 19.8589 85.2843 21.3289 82.4737 21.3289Z" fill="#1D2434"/>
<path d="M66.025 16.174L66.7895 15.8447C67.4406 15.5649 67.9958 15.1007 68.3865 14.5094C68.7773 13.9181 68.9865 13.2254 68.9886 12.5166C68.9886 10.3057 67.3971 8.87885 64.9353 8.87885H60.29V21.1407H62.2501V10.6115H64.7275C65.0213 10.5938 65.3156 10.6366 65.5921 10.7373C65.8687 10.8381 66.1216 10.9945 66.3352 11.1971C66.5487 11.3996 66.7184 11.6439 66.8336 11.9147C66.9488 12.1855 67.0072 12.4771 67.0051 12.7714C67.0038 13.0648 66.9432 13.3548 66.8268 13.624C66.7104 13.8933 66.5406 14.1362 66.3278 14.338C66.1149 14.5399 65.8634 14.6965 65.5884 14.7985C65.3133 14.9005 65.0205 14.9457 64.7275 14.9314H63.6848C63.2261 14.998 63.4653 15.39 63.4653 15.39L67.4206 21.1407H69.6354L66.025 16.174Z" fill="#1D2434"/>
</g>
<defs>
<clipPath id="clip0_163_263">
<rect width="87.2442" height="30" fill="white"/>
</clipPath>
</defs>
</svg>
