<?xml version="1.0" standalone="no"?><!DOCTYPE svg PUBLIC "-//W3C//DTD SVG 1.1//EN" "http://www.w3.org/Graphics/SVG/1.1/DTD/svg11.dtd"><svg t="1636341177243" class="icon" viewBox="0 0 1024 1024" version="1.1" xmlns="http://www.w3.org/2000/svg" p-id="17682" xmlns:xlink="http://www.w3.org/1999/xlink" width="128" height="128"><defs><style type="text/css"></style></defs><path d="M245.76 286.72h552.96c124.928 0 225.28 100.352 225.28 225.28s-100.352 225.28-225.28 225.28H0V532.48c0-135.168 110.592-245.76 245.76-245.76z m133.12 348.16V401.408H348.16v178.176l-112.64-178.176H204.8V634.88h30.72v-178.176L348.16 634.88h30.72z m182.272-108.544v-24.576h-96.256v-75.776h110.592v-24.576h-141.312V634.88h143.36v-24.576h-112.64v-83.968h96.256z m100.352 28.672l-34.816-151.552h-34.816l55.296 233.472H675.84l47.104-161.792 4.096-20.48 4.096 20.48 47.104 161.792h28.672l57.344-233.472h-34.816l-32.768 151.552-4.096 30.72-6.144-30.72-40.96-151.552h-30.72l-40.96 151.552-6.144 30.72-6.144-30.72z" fill="#D22128" p-id="17683"></path></svg>