<?xml version="1.0" encoding="utf-8"?>
<!-- Generator: Adobe Illustrator 26.0.2, SVG Export Plug-In . SVG Version: 6.00 Build 0)  -->
<svg version="1.1" id="图层_1" xmlns="http://www.w3.org/2000/svg" xmlns:xlink="http://www.w3.org/1999/xlink" x="0px" y="0px"
	 viewBox="0 0 178 215" style="enable-background:new 0 0 178 215;" xml:space="preserve">
<style type="text/css">
	.st0{fill:#15A9CA;}
	.st1{fill:#52CAA3;}
	.st2{fill:#5268AD;}
</style>
<g>
	<g>
		<path class="st0" d="M104.4,40.9L83.5,20.1c-5.5-5.5-13-8.5-20.3-8.5c-6.8,0-13.5,2.5-18.8,7.5c-5.3,5.3-8.3,12-8.3,19.6
			s2.8,14.3,8,19.6L82,96.1c1.5,1.5,4.3,1.5,6,0l16.3-16.3C105.4,78.5,122.7,58.9,104.4,40.9z"/>
		<path class="st1" d="M138.7,74.2c-4-3.8-8-7.8-11.8-12.3c0,0,0,0-0.3-0.3c0,0.3-0.3,0.8-0.3,1.3c-1.5,9-5.8,17.1-12.8,24.1
			c-22.1,21.8-44.4,44.4-66,66l-2.8,2.8c-5,5-7.8,10.3-8.5,15.6c-1,8,1.8,17.1,7.8,23.6c5.3,5.8,12.3,8.8,19.8,8.5l0,0
			c8.5,0.3,12.8-1,19.1-7c25.1-24.6,50.2-49.4,69.2-68.2c9-9,11-23.6,4.8-33.6C151.8,86.8,145.3,80.5,138.7,74.2z"/>
		<path class="st2" d="M17.3,61.2v92.6c0,2.5,1.8,4,3.3,4.8c1.5,0.8,3.8,0.8,5.5-1l46.7-46.7c1.8-1.8,1.8-4.8,0-6.8L26.1,57.4
			c-1-1-2.5-1.5-3.5-1.5c-0.8,0-1.5,0.3-2,0.5C19.1,57.2,17.3,58.7,17.3,61.2z"/>
	</g>
</g>
</svg>
