<svg id="kity_svg_6" xmlns="http://www.w3.org/2000/svg" xmlns:xlink="http://www.w3.org/1999/xlink" version="1.1" width="1003" height="525" style="background: rgb(251, 251, 251); visibility: visible;" viewBox="0 0 1003 525"><defs id="kity_defs_7"><linearGradient id="kity_linearGradient_17" x1="0" y1="0" x2="0" y2="1"><stop id="kity_stop_18" offset="0" stop-color="rgb(255, 255, 255)"></stop><stop id="kity_stop_19" offset="1" stop-color="rgb(204, 204, 204)"></stop></linearGradient><marker id="kity_marker_2" orient="auto" refX="6" refY="0" viewBox="-7 -7 14 14" markerWidth="7" markerHeight="7" markerUnits="userSpaceOnUse"><path id="kity_path_3" fill="rgb(191, 115, 115)" stroke="none" d="M6,0A6,6,0,1,1,-6,0A6,6,0,1,1,6,0"></path></marker></defs><g id="kity_g_8"><g id="minder1" text-rendering="optimize-speed"><g id="minder_connect_group1"><path id="kity_path_31" fill="none" stroke="rgb(191, 115, 115)" stroke-width="1" d="M426.5,271.5A158,193,0,0,1,584.5,78.5"></path><path id="kity_path_33" fill="none" stroke="rgb(191, 115, 115)" stroke-width="1" d="M682.5,78.5C697.5,78.5,697.5,53.5,712.5,53.5L791.5,53.5"></path><path id="kity_path_35" fill="none" stroke="rgb(191, 115, 115)" stroke-width="1" d="M682.5,78.5C697.5,78.5,697.5,139.5,712.5,139.5L766.5,139.5"></path><path id="kity_path_37" fill="none" stroke="rgb(191, 115, 115)" stroke-width="1" d="M766.5,139.5C781.5,139.5,781.5,113.5,796.5,113.5L971.5,113.5"></path><path id="kity_path_39" fill="none" stroke="rgb(191, 115, 115)" stroke-width="1" d="M766.5,139.5C781.5,139.5,781.5,173.5,796.5,173.5L938.5,173.5"></path><path id="kity_path_41" fill="none" stroke="rgb(191, 115, 115)" stroke-width="1" d="M426.5,271.5A158,2,0,0,0,584.5,273.5"></path><path id="kity_path_43" fill="none" stroke="rgb(191, 115, 115)" stroke-width="1" d="M710.5,273.5C725.5,273.5,725.5,235.5,740.5,235.5L799.5,235.5"></path><path id="kity_path_45" fill="none" stroke="rgb(191, 115, 115)" stroke-width="1" d="M710.5,273.5C725.5,273.5,725.5,339.5,740.5,339.5L804.5,339.5"></path><path id="kity_path_47" fill="none" stroke="rgb(191, 115, 115)" stroke-width="1" d="M804.5,339.5C819.5,339.5,819.5,287.5,834.5,287.5L949.5,287.5"></path><path id="kity_path_49" fill="none" stroke="rgb(191, 115, 115)" stroke-width="1" d="M804.5,339.5C819.5,339.5,819.5,339.5,834.5,339.5L887.5,339.5"></path><path id="kity_path_51" fill="none" stroke="rgb(191, 115, 115)" stroke-width="1" d="M804.5,339.5C819.5,339.5,819.5,391.5,834.5,391.5L983.5,391.5"></path><path id="kity_path_53" fill="none" stroke="rgb(191, 115, 115)" stroke-width="1" d="M426.5,271.5A158,194,0,0,0,584.5,465.5"></path><path id="kity_path_55" fill="none" stroke="rgb(191, 115, 115)" stroke-width="1" d="M724.5,465.5C739.5,465.5,739.5,453.5,754.5,453.5L859.5,453.5"></path><path id="kity_path_57" fill="none" stroke="rgb(191, 115, 115)" stroke-width="1" d="M724.5,465.5C739.5,465.5,739.5,505.5,754.5,505.5L808.5,505.5"></path><path id="kity_path_59" fill="none" stroke="rgb(191, 115, 115)" stroke-width="1" d="M426.5,271.5A158,70,0,0,0,268.5,201.5"></path><path id="kity_path_61" fill="none" stroke="rgb(191, 115, 115)" stroke-width="1" d="M128.5,201.5C113.5,201.5,113.5,163.5,98.5,163.5L25.5,163.5"></path><path id="kity_path_63" fill="none" stroke="rgb(191, 115, 115)" stroke-width="1" d="M128.5,201.5C113.5,201.5,113.5,215.5,98.5,215.5L20.5,215.5"></path><path id="kity_path_65" fill="none" stroke="rgb(191, 115, 115)" stroke-width="1" d="M128.5,201.5C113.5,201.5,113.5,267.5,98.5,267.5L20.5,267.5"></path><path id="kity_path_67" fill="none" stroke="rgb(191, 115, 115)" stroke-width="1" d="M426.5,271.5A158,70,0,0,1,268.5,341.5"></path><path id="kity_path_69" fill="none" stroke="rgb(191, 115, 115)" stroke-width="1" d="M198.5,341.5C183.5,341.5,183.5,329.5,168.5,329.5L90.5,329.5"></path><path id="kity_path_71" fill="none" stroke="rgb(191, 115, 115)" stroke-width="1" d="M198.5,341.5C183.5,341.5,183.5,381.5,168.5,381.5L90.5,381.5"></path></g><g id="minder_node1"><path id="node_outline1" fill="rgb(191, 115, 115)" stroke="rgb(191, 115, 115)" d="M391.5,251.5h70a5,5,0,0,1,5,5v30a5,5,0,0,1,-5,5h-70a5,5,0,0,1,-5,-5v-30a5,5,0,0,1,5,-5z" stroke-width="3"></path><g id="node_text1" fill="white"><text id="kity_text_22" text-rendering="inherit" font-size="16" dy=".8em" y="263.5" x="410.5">导出</text></g></g><g id="kity_g_12"><path id="kity_path_13" fill="none" stroke="none" d="M410.5,271.5h0v0h0z"></path></g><g id="kity_g_14"><path id="kity_path_15" fill="none" stroke="none" d="M410.5,271.5h0v0h0z"></path><path id="kity_path_16" fill="none" stroke="none"></path></g><g id="minder_node2"><g id="node_expander5" style="cursor: pointer;"><path id="kity_path_163" fill="white" stroke="gray" d="M585.5,78.5A6,6,0,1,1,573.5,78.5A6,6,0,1,1,585.5,78.5"></path><path id="kity_path_164" fill="none" stroke="gray" d="M575,78.5L584,78.5"></path></g><path id="node_outline6" fill="rgb(246, 238, 238)" stroke="rgb(191, 115, 115)" d="M589.5,65.5h90a3,3,0,0,1,3,3v20a3,3,0,0,1,-3,3h-90a3,3,0,0,1,-3,-3v-20a3,3,0,0,1,3,-3z" stroke-width="1"></path><g id="node_text6" fill="black"><text id="kity_text_81" text-rendering="inherit" font-size="14" dy=".8em" y="71.5" x="606.5">导出内容</text></g></g><g id="minder_node3"><g id="node_expander1" style="cursor: pointer;" display="none"><path id="kity_path_151" fill="white" stroke="gray" d="M722.5,35.5A6,6,0,1,1,710.5,35.5A6,6,0,1,1,722.5,35.5"></path><path id="kity_path_152" fill="none" stroke="gray"></path></g><path id="node_outline2" fill="none" stroke="none" d="M727.5,20.5h59a5,5,0,0,1,5,5v20a5,5,0,0,1,-5,5h-59a5,5,0,0,1,-5,-5v-20a5,5,0,0,1,5,-5z"></path><g id="node_text2" fill="black"><text id="kity_text_73" text-rendering="inherit" font-size="12" dy=".8em" y="29.5" x="757.5">全量</text></g><g id="node_priority1"><path id="kity_path_116" fill="#840023" stroke="none" d="M733,39c0,3.866,3.134,7,7,7h6c3.866,0,7,-3.134,7,-7V33H733V39z"></path><path id="kity_path_117" fill="#FF1200" stroke="none" d="M753,36c0,3.866,-3.134,7,-7,7H740c-3.866,0,-7,-3.134,-7,-7V33c0,-3.866,3.134,-7,7,-7h6c3.866,0,7,3.134,7,7V36z" opacity="0.8"></path><text id="kity_text_118" text-rendering="geometricPrecision" x="742" y="35.5" text-anchor="middle" font-style="italic" font-size="12" fill="white" dy="4">1</text></g></g><g id="minder_node4"><g id="node_expander4" style="cursor: pointer;"><path id="kity_path_160" fill="white" stroke="gray" d="M722.5,125.5A6,6,0,1,1,710.5,125.5A6,6,0,1,1,722.5,125.5"></path><path id="kity_path_161" fill="none" stroke="gray" d="M712,125.5L721,125.5"></path></g><path id="node_outline5" fill="none" stroke="none" d="M727.5,114.5h34a5,5,0,0,1,5,5v12a5,5,0,0,1,-5,5h-34a5,5,0,0,1,-5,-5v-12a5,5,0,0,1,5,-5z"></path><g id="node_text5" fill="black"><text id="kity_text_79" text-rendering="inherit" font-size="12" dy=".8em" y="119.5" x="732.5">部分</text></g></g><g id="minder_node5"><g id="node_expander2" style="cursor: pointer;" display="none"><path id="kity_path_154" fill="white" stroke="gray" d="M806.5,95.5A6,6,0,1,1,794.5,95.5A6,6,0,1,1,806.5,95.5"></path><path id="kity_path_155" fill="none" stroke="gray"></path></g><path id="node_outline3" fill="none" stroke="none" d="M811.5,80.5h155a5,5,0,0,1,5,5v20a5,5,0,0,1,-5,5h-155a5,5,0,0,1,-5,-5v-20a5,5,0,0,1,5,-5z"></path><g id="node_text3" fill="black"><text id="kity_text_75" text-rendering="inherit" font-size="12" dy=".8em" y="89.5" x="841.5">指定partition进行导出</text></g><g id="node_priority2"><path id="kity_path_121" fill="#01467F" stroke="none" d="M817,99c0,3.866,3.134,7,7,7h6c3.866,0,7,-3.134,7,-7V93H817V99z"></path><path id="kity_path_122" fill="#0074FF" stroke="none" d="M837,96c0,3.866,-3.134,7,-7,7H824c-3.866,0,-7,-3.134,-7,-7V93c0,-3.866,3.134,-7,7,-7h6c3.866,0,7,3.134,7,7V96z" opacity="0.8"></path><text id="kity_text_123" text-rendering="geometricPrecision" x="826" y="95.5" text-anchor="middle" font-style="italic" font-size="12" fill="white" dy="4">2</text></g></g><g id="minder_node6"><g id="node_expander3" style="cursor: pointer;" display="none"><path id="kity_path_157" fill="white" stroke="gray" d="M806.5,155.5A6,6,0,1,1,794.5,155.5A6,6,0,1,1,806.5,155.5"></path><path id="kity_path_158" fill="none" stroke="gray"></path></g><path id="node_outline4" fill="none" stroke="none" d="M811.5,140.5h122a5,5,0,0,1,5,5v20a5,5,0,0,1,-5,5h-122a5,5,0,0,1,-5,-5v-20a5,5,0,0,1,5,-5z"></path><g id="node_text4" fill="black"><text id="kity_text_77" text-rendering="inherit" font-size="12" dy=".8em" y="149.5" x="841.5">任意sql查询结果 </text></g><g id="node_priority3"><path id="kity_path_126" fill="#006300" stroke="none" d="M817,159c0,3.866,3.134,7,7,7h6c3.866,0,7,-3.134,7,-7V153H817V159z"></path><path id="kity_path_127" fill="#00AF00" stroke="none" d="M837,156c0,3.866,-3.134,7,-7,7H824c-3.866,0,-7,-3.134,-7,-7V153c0,-3.866,3.134,-7,7,-7h6c3.866,0,7,3.134,7,7V156z" opacity="0.8"></path><text id="kity_text_128" text-rendering="geometricPrecision" x="826" y="155.5" text-anchor="middle" font-style="italic" font-size="12" fill="white" dy="4">3</text></g></g><g id="minder_node7"><g id="node_expander11" style="cursor: pointer;"><path id="kity_path_181" fill="white" stroke="gray" d="M585.5,273.5A6,6,0,1,1,573.5,273.5A6,6,0,1,1,585.5,273.5"></path><path id="kity_path_182" fill="none" stroke="gray" d="M575,273.5L584,273.5"></path></g><path id="node_outline12" fill="rgb(246, 238, 238)" stroke="rgb(191, 115, 115)" d="M589.5,260.5h118a3,3,0,0,1,3,3v20a3,3,0,0,1,-3,3h-118a3,3,0,0,1,-3,-3v-20a3,3,0,0,1,3,-3z" stroke-width="1"></path><g id="node_text12" fill="black"><text id="kity_text_93" text-rendering="inherit" font-size="14" dy=".8em" y="266.5" x="606.5">导出目标存储</text></g></g><g id="minder_node8"><g id="node_expander6" style="cursor: pointer;" display="none"><path id="kity_path_166" fill="white" stroke="gray" d="M750.5,221.5A6,6,0,1,1,738.5,221.5A6,6,0,1,1,750.5,221.5"></path><path id="kity_path_167" fill="none" stroke="gray"></path></g><path id="node_outline7" fill="none" stroke="none" d="M755.5,210.5h39a5,5,0,0,1,5,5v12a5,5,0,0,1,-5,5h-39a5,5,0,0,1,-5,-5v-12a5,5,0,0,1,5,-5z"></path><g id="node_text7" fill="black"><text id="kity_text_83" text-rendering="inherit" font-size="12" dy=".8em" y="215.5" x="760.5">local</text></g></g><g id="minder_node9"><g id="node_expander10" style="cursor: pointer;"><path id="kity_path_178" fill="white" stroke="gray" d="M750.5,325.5A6,6,0,1,1,738.5,325.5A6,6,0,1,1,750.5,325.5"></path><path id="kity_path_179" fill="none" stroke="gray" d="M740,325.5L749,325.5"></path></g><path id="node_outline11" fill="none" stroke="none" d="M755.5,314.5h44a5,5,0,0,1,5,5v12a5,5,0,0,1,-5,5h-44a5,5,0,0,1,-5,-5v-12a5,5,0,0,1,5,-5z"></path><g id="node_text11" fill="black"><text id="kity_text_91" text-rendering="inherit" font-size="12" dy=".8em" y="319.5" x="760.5">cloud</text></g></g><g id="minder_node10"><g id="node_expander7" style="cursor: pointer;" display="none"><path id="kity_path_169" fill="white" stroke="gray" d="M844.5,273.5A6,6,0,1,1,832.5,273.5A6,6,0,1,1,844.5,273.5"></path><path id="kity_path_170" fill="none" stroke="gray"></path></g><path id="node_outline8" fill="none" stroke="none" d="M849.5,262.5h95a5,5,0,0,1,5,5v12a5,5,0,0,1,-5,5h-95a5,5,0,0,1,-5,-5v-12a5,5,0,0,1,5,-5z"></path><g id="node_text8" fill="black"><text id="kity_text_85" text-rendering="inherit" font-size="12" dy=".8em" y="267.5" x="854.5">Baidu Hadoop</text></g></g><g id="minder_node11"><g id="node_expander8" style="cursor: pointer;" display="none"><path id="kity_path_172" fill="white" stroke="gray" d="M844.5,325.5A6,6,0,1,1,832.5,325.5A6,6,0,1,1,844.5,325.5"></path><path id="kity_path_173" fill="none" stroke="gray"></path></g><path id="node_outline9" fill="none" stroke="none" d="M849.5,314.5h33a5,5,0,0,1,5,5v12a5,5,0,0,1,-5,5h-33a5,5,0,0,1,-5,-5v-12a5,5,0,0,1,5,-5z"></path><g id="node_text9" fill="black"><text id="kity_text_87" text-rendering="inherit" font-size="12" dy=".8em" y="319.5" x="854.5">BOS</text></g></g><g id="minder_node12"><g id="node_expander9" style="cursor: pointer;" display="none"><path id="kity_path_175" fill="white" stroke="gray" d="M844.5,377.5A6,6,0,1,1,832.5,377.5A6,6,0,1,1,844.5,377.5"></path><path id="kity_path_176" fill="none" stroke="gray"></path></g><path id="node_outline10" fill="none" stroke="none" d="M849.5,366.5h129a5,5,0,0,1,5,5v12a5,5,0,0,1,-5,5h-129a5,5,0,0,1,-5,-5v-12a5,5,0,0,1,5,-5z"></path><g id="node_text10" fill="black"><text id="kity_text_89" text-rendering="inherit" font-size="12" dy=".8em" y="371.5" x="854.5">Community&#xa0;Hadoop</text></g></g><g id="minder_node13"><g id="node_expander14" style="cursor: pointer;"><path id="kity_path_190" fill="white" stroke="gray" d="M585.5,465.5A6,6,0,1,1,573.5,465.5A6,6,0,1,1,585.5,465.5"></path><path id="kity_path_191" fill="none" stroke="gray" d="M575,465.5L584,465.5"></path></g><path id="node_outline15" fill="rgb(246, 238, 238)" stroke="rgb(191, 115, 115)" d="M589.5,452.5h132a3,3,0,0,1,3,3v20a3,3,0,0,1,-3,3h-132a3,3,0,0,1,-3,-3v-20a3,3,0,0,1,3,-3z" stroke-width="1"></path><g id="node_text15" fill="black"><text id="kity_text_99" text-rendering="inherit" font-size="14" dy=".8em" y="458.5" x="606.5">导出后访问方式</text></g></g><g id="minder_node14"><g id="node_expander12" style="cursor: pointer;" display="none"><path id="kity_path_184" fill="white" stroke="gray" d="M764.5,439.5A6,6,0,1,1,752.5,439.5A6,6,0,1,1,764.5,439.5"></path><path id="kity_path_185" fill="none" stroke="gray"></path></g><path id="node_outline13" fill="none" stroke="none" d="M769.5,428.5h85a5,5,0,0,1,5,5v12a5,5,0,0,1,-5,5h-85a5,5,0,0,1,-5,-5v-12a5,5,0,0,1,5,-5z"></path><g id="node_text13" fill="black"><text id="kity_text_95" text-rendering="inherit" font-size="12" dy=".8em" y="433.5" x="774.5">palo的外部表</text></g></g><g id="minder_node15"><g id="node_expander13" style="cursor: pointer;" display="none"><path id="kity_path_187" fill="white" stroke="gray" d="M764.5,491.5A6,6,0,1,1,752.5,491.5A6,6,0,1,1,764.5,491.5"></path><path id="kity_path_188" fill="none" stroke="gray"></path></g><path id="node_outline14" fill="none" stroke="none" d="M769.5,480.5h34a5,5,0,0,1,5,5v12a5,5,0,0,1,-5,5h-34a5,5,0,0,1,-5,-5v-12a5,5,0,0,1,5,-5z"></path><g id="node_text14" fill="black"><text id="kity_text_97" text-rendering="inherit" font-size="12" dy=".8em" y="485.5" x="774.5">其它</text></g></g><g id="minder_node16"><g id="node_expander18" style="cursor: pointer;"><path id="kity_path_202" fill="white" stroke="gray" d="M279.5,201.5A6,6,0,1,1,267.5,201.5A6,6,0,1,1,279.5,201.5"></path><path id="kity_path_203" fill="none" stroke="gray" d="M269,201.5L278,201.5"></path></g><path id="node_outline19" fill="rgb(246, 238, 238)" stroke="rgb(191, 115, 115)" d="M131.5,188.5h132a3,3,0,0,1,3,3v20a3,3,0,0,1,-3,3h-132a3,3,0,0,1,-3,-3v-20a3,3,0,0,1,3,-3z" stroke-width="1"></path><g id="node_text19" fill="black"><text id="kity_text_107" text-rendering="inherit" font-size="14" dy=".8em" y="194.5" x="148.5">导出后数据格式</text></g></g><g id="minder_node17"><g id="node_expander15" style="cursor: pointer;" display="none"><path id="kity_path_193" fill="white" stroke="gray" d="M100.5,149.5A6,6,0,1,1,88.5,149.5A6,6,0,1,1,100.5,149.5"></path><path id="kity_path_194" fill="none" stroke="gray"></path></g><path id="node_outline16" fill="none" stroke="none" d="M30.5,138.5h53a5,5,0,0,1,5,5v12a5,5,0,0,1,-5,5h-53a5,5,0,0,1,-5,-5v-12a5,5,0,0,1,5,-5z"></path><g id="node_text16" fill="black"><text id="kity_text_101" text-rendering="inherit" font-size="12" dy=".8em" y="143.5" x="35.5">csv文本</text></g></g><g id="minder_node18"><g id="node_expander16" style="cursor: pointer;" display="none"><path id="kity_path_196" fill="white" stroke="gray" d="M100.5,201.5A6,6,0,1,1,88.5,201.5A6,6,0,1,1,100.5,201.5"></path><path id="kity_path_197" fill="none" stroke="gray"></path></g><path id="node_outline17" fill="none" stroke="none" d="M25.5,190.5h58a5,5,0,0,1,5,5v12a5,5,0,0,1,-5,5h-58a5,5,0,0,1,-5,-5v-12a5,5,0,0,1,5,-5z"></path><g id="node_text17" fill="black"><text id="kity_text_103" text-rendering="inherit" font-size="12" dy=".8em" y="195.5" x="30.5">压缩文件</text></g></g><g id="minder_node19"><g id="node_expander17" style="cursor: pointer;" display="none"><path id="kity_path_199" fill="white" stroke="gray" d="M100.5,253.5A6,6,0,1,1,88.5,253.5A6,6,0,1,1,100.5,253.5"></path><path id="kity_path_200" fill="none" stroke="gray"></path></g><path id="node_outline18" fill="none" stroke="none" d="M25.5,242.5h58a5,5,0,0,1,5,5v12a5,5,0,0,1,-5,5h-58a5,5,0,0,1,-5,-5v-12a5,5,0,0,1,5,-5z"></path><g id="node_text18" fill="black"><text id="kity_text_105" text-rendering="inherit" font-size="12" dy=".8em" y="247.5" x="30.5">其它格式</text></g></g><g id="minder_node20"><g id="node_expander21" style="cursor: pointer;"><path id="kity_path_211" fill="white" stroke="gray" d="M279.5,341.5A6,6,0,1,1,267.5,341.5A6,6,0,1,1,279.5,341.5"></path><path id="kity_path_212" fill="none" stroke="gray" d="M269,341.5L278,341.5"></path></g><path id="node_outline22" fill="rgb(246, 238, 238)" stroke="rgb(191, 115, 115)" d="M201.5,328.5h62a3,3,0,0,1,3,3v20a3,3,0,0,1,-3,3h-62a3,3,0,0,1,-3,-3v-20a3,3,0,0,1,3,-3z" stroke-width="1"></path><g id="node_text22" fill="black"><text id="kity_text_113" text-rendering="inherit" font-size="14" dy=".8em" y="334.5" x="218.5">其它</text></g></g><g id="minder_node21"><g id="node_expander19" style="cursor: pointer;" display="none"><path id="kity_path_205" fill="white" stroke="gray" d="M170.5,315.5A6,6,0,1,1,158.5,315.5A6,6,0,1,1,170.5,315.5"></path><path id="kity_path_206" fill="none" stroke="gray"></path></g><path id="node_outline20" fill="none" stroke="none" d="M95.5,304.5h58a5,5,0,0,1,5,5v12a5,5,0,0,1,-5,5h-58a5,5,0,0,1,-5,-5v-12a5,5,0,0,1,5,-5z" stroke-width="3"></path><g id="node_text20" fill="black"><text id="kity_text_109" text-rendering="inherit" font-size="12" dy=".8em" y="309.5" x="100.5">导出效率</text></g></g><g id="minder_node22"><g id="node_expander20" style="cursor: pointer;" display="none"><path id="kity_path_208" fill="white" stroke="gray" d="M170.5,367.5A6,6,0,1,1,158.5,367.5A6,6,0,1,1,170.5,367.5"></path><path id="kity_path_209" fill="none" stroke="gray"></path></g><path id="node_outline21" fill="none" stroke="none" d="M95.5,356.5h58a5,5,0,0,1,5,5v12a5,5,0,0,1,-5,5h-58a5,5,0,0,1,-5,-5v-12a5,5,0,0,1,5,-5z" stroke-width="3"></path><g id="node_text21" fill="black"><text id="kity_text_111" text-rendering="inherit" font-size="12" dy=".8em" y="361.5" x="100.5">失败重试</text></g></g></g></g></svg>